<svg width="1440" height="1024" viewBox="0 0 1440 1024" fill="none" xmlns="http://www.w3.org/2000/svg">
<g clip-path="url(#clip0_118_3)">
<rect width="1440" height="1024" fill="url(#paint0_linear_118_3)"/>
<path d="M64.8064 957.613C197.8 957.613 305.613 849.8 305.613 716.806C305.613 583.813 197.8 476 64.8064 476C-68.1873 476 -176 583.813 -176 716.806C-176 849.8 -68.1873 957.613 64.8064 957.613Z" fill="url(#paint1_linear_118_3)"/>
<path d="M416.5 686C431.136 686 443 674.136 443 659.5C443 644.864 431.136 633 416.5 633C401.864 633 390 644.864 390 659.5C390 674.136 401.864 686 416.5 686Z" fill="url(#paint2_linear_118_3)"/>
<path d="M416.5 353C431.136 353 443 341.136 443 326.5C443 311.864 431.136 300 416.5 300C401.864 300 390 311.864 390 326.5C390 341.136 401.864 353 416.5 353Z" fill="url(#paint3_linear_118_3)"/>
<path d="M701 856C736.898 856 766 826.899 766 791C766 755.102 736.898 726 701 726C665.101 726 636 755.102 636 791C636 826.899 665.101 856 701 856Z" fill="url(#paint4_linear_118_3)"/>
<path d="M148 353C183.898 353 213 323.899 213 288C213 252.102 183.898 223 148 223C112.101 223 83 252.102 83 288C83 323.899 112.101 353 148 353Z" fill="url(#paint5_linear_118_3)"/>
<path d="M905 373C940.898 373 970 343.899 970 308C970 272.102 940.898 243 905 243C869.101 243 840 272.102 840 308C840 343.899 869.101 373 905 373Z" fill="url(#paint6_linear_118_3)"/>
<path d="M1140 811C1175.9 811 1205 781.899 1205 746C1205 710.102 1175.9 681 1140 681C1104.1 681 1075 710.102 1075 746C1075 781.899 1104.1 811 1140 811Z" fill="url(#paint7_linear_118_3)"/>
<path d="M859.874 931.747C876.925 931.747 890.747 917.925 890.747 900.874C890.747 883.823 876.925 870 859.874 870C842.823 870 829 883.823 829 900.874C829 917.925 842.823 931.747 859.874 931.747Z" fill="url(#paint8_linear_118_3)"/>
<path d="M859.874 931.747C876.925 931.747 890.747 917.925 890.747 900.874C890.747 883.823 876.925 870 859.874 870C842.823 870 829 883.823 829 900.874C829 917.925 842.823 931.747 859.874 931.747Z" fill="url(#paint9_linear_118_3)"/>
<path d="M997.874 615.747C1014.92 615.747 1028.75 601.925 1028.75 584.874C1028.75 567.823 1014.92 554 997.874 554C980.823 554 967 567.823 967 584.874C967 601.925 980.823 615.747 997.874 615.747Z" fill="url(#paint10_linear_118_3)"/>
<path d="M911 753C920.941 753 929 744.941 929 735C929 725.059 920.941 717 911 717C901.059 717 893 725.059 893 735C893 744.941 901.059 753 911 753Z" fill="url(#paint11_linear_118_3)"/>
<path d="M978 892C987.941 892 996 883.941 996 874C996 864.059 987.941 856 978 856C968.059 856 960 864.059 960 874C960 883.941 968.059 892 978 892Z" fill="url(#paint12_linear_118_3)"/>
<path d="M766 977C775.941 977 784 968.941 784 959C784 949.059 775.941 941 766 941C756.059 941 748 949.059 748 959C748 968.941 756.059 977 766 977Z" fill="url(#paint13_linear_118_3)"/>
<path d="M1045 1031C1054.94 1031 1063 1022.94 1063 1013C1063 1003.06 1054.94 995 1045 995C1035.06 995 1027 1003.06 1027 1013C1027 1022.94 1035.06 1031 1045 1031Z" fill="url(#paint14_linear_118_3)"/>
<path d="M748 344C757.941 344 766 335.941 766 326C766 316.059 757.941 308 748 308C738.059 308 730 316.059 730 326C730 335.941 738.059 344 748 344Z" fill="url(#paint15_linear_118_3)"/>
<path d="M606 300C615.941 300 624 291.941 624 282C624 272.059 615.941 264 606 264C596.059 264 588 272.059 588 282C588 291.941 596.059 300 606 300Z" fill="url(#paint16_linear_118_3)"/>
<path d="M1426.87 400.747C1443.92 400.747 1457.75 386.925 1457.75 369.874C1457.75 352.823 1443.92 339 1426.87 339C1409.82 339 1396 352.823 1396 369.874C1396 386.925 1409.82 400.747 1426.87 400.747Z" fill="url(#paint17_linear_118_3)"/>
<path d="M1346.81 1193.61C1479.8 1193.61 1587.61 1085.8 1587.61 952.806C1587.61 819.813 1479.8 712 1346.81 712C1213.81 712 1106 819.813 1106 952.806C1106 1085.8 1213.81 1193.61 1346.81 1193.61Z" fill="url(#paint18_linear_118_3)"/>
<path d="M1395.86 159.715C1444.93 159.715 1484.72 119.932 1484.72 70.8576C1484.72 21.7829 1444.93 -18 1395.86 -18C1346.78 -18 1307 21.7829 1307 70.8576C1307 119.932 1346.78 159.715 1395.86 159.715Z" fill="url(#paint19_linear_118_3)"/>
<path d="M-24.1424 116.715C24.9323 116.715 64.7153 76.9323 64.7153 27.8576C64.7153 -21.2171 24.9323 -61 -24.1424 -61C-73.2171 -61 -113 -21.2171 -113 27.8576C-113 76.9323 -73.2171 116.715 -24.1424 116.715Z" fill="url(#paint20_linear_118_3)"/>
<path d="M290.448 1393.9C487.309 1393.9 646.896 1234.31 646.896 1037.45C646.896 840.587 487.309 681 290.448 681C93.5872 681 -66 840.587 -66 1037.45C-66 1234.31 93.5872 1393.9 290.448 1393.9Z" fill="url(#paint21_linear_118_3)"/>
<path d="M1314.87 598.747C1331.92 598.747 1345.75 584.925 1345.75 567.874C1345.75 550.823 1331.92 537 1314.87 537C1297.82 537 1284 550.823 1284 567.874C1284 584.925 1297.82 598.747 1314.87 598.747Z" fill="url(#paint22_linear_118_3)"/>
<path d="M1252.87 400.747C1269.92 400.747 1283.75 386.925 1283.75 369.874C1283.75 352.823 1269.92 339 1252.87 339C1235.82 339 1222 352.823 1222 369.874C1222 386.925 1235.82 400.747 1252.87 400.747Z" fill="url(#paint23_linear_118_3)"/>
</g>
<defs>
<linearGradient id="paint0_linear_118_3" x1="720" y1="0" x2="720" y2="1024" gradientUnits="userSpaceOnUse">
<stop stop-color="#6A00F4"/>
<stop offset="1" stop-color="#00D2FF"/>
</linearGradient>
<linearGradient id="paint1_linear_118_3" x1="64.7974" y1="957.608" x2="64.7974" y2="475.986" gradientUnits="userSpaceOnUse">
<stop stop-color="#E12179"/>
<stop offset="1" stop-color="#311996"/>
</linearGradient>
<linearGradient id="paint2_linear_118_3" x1="443.001" y1="659.492" x2="390.005" y2="659.492" gradientUnits="userSpaceOnUse">
<stop stop-color="#40A4FF"/>
<stop offset="1" stop-color="#311996"/>
</linearGradient>
<linearGradient id="paint3_linear_118_3" x1="443.001" y1="326.492" x2="390.005" y2="326.492" gradientUnits="userSpaceOnUse">
<stop stop-color="#40A4FF"/>
<stop offset="1" stop-color="#311996"/>
</linearGradient>
<linearGradient id="paint4_linear_118_3" x1="766.002" y1="790.981" x2="636.012" y2="790.981" gradientUnits="userSpaceOnUse">
<stop stop-color="#40A4FF"/>
<stop offset="1" stop-color="#311996"/>
</linearGradient>
<linearGradient id="paint5_linear_118_3" x1="213.002" y1="287.981" x2="83.0117" y2="287.981" gradientUnits="userSpaceOnUse">
<stop stop-color="#40A4FF"/>
<stop offset="1" stop-color="#311996"/>
</linearGradient>
<linearGradient id="paint6_linear_118_3" x1="970.002" y1="307.981" x2="840.012" y2="307.981" gradientUnits="userSpaceOnUse">
<stop stop-color="#40A4FF"/>
<stop offset="1" stop-color="#311996"/>
</linearGradient>
<linearGradient id="paint7_linear_118_3" x1="1205" y1="745.981" x2="1075.01" y2="745.981" gradientUnits="userSpaceOnUse">
<stop stop-color="#40A4FF"/>
<stop offset="1" stop-color="#311996"/>
</linearGradient>
<linearGradient id="paint8_linear_118_3" x1="890.748" y1="900.865" x2="829.006" y2="900.865" gradientUnits="userSpaceOnUse">
<stop stop-color="#40A4FF"/>
<stop offset="1" stop-color="#311996"/>
</linearGradient>
<linearGradient id="paint9_linear_118_3" x1="890.748" y1="900.865" x2="829.006" y2="900.865" gradientUnits="userSpaceOnUse">
<stop stop-color="#40A4FF"/>
<stop offset="1" stop-color="#311996"/>
</linearGradient>
<linearGradient id="paint10_linear_118_3" x1="1028.75" y1="584.865" x2="967.006" y2="584.865" gradientUnits="userSpaceOnUse">
<stop stop-color="#40A4FF"/>
<stop offset="1" stop-color="#311996"/>
</linearGradient>
<linearGradient id="paint11_linear_118_3" x1="929.001" y1="734.995" x2="893.003" y2="734.995" gradientUnits="userSpaceOnUse">
<stop stop-color="#40A4FF"/>
<stop offset="1" stop-color="#311996"/>
</linearGradient>
<linearGradient id="paint12_linear_118_3" x1="996.001" y1="873.995" x2="960.003" y2="873.995" gradientUnits="userSpaceOnUse">
<stop stop-color="#40A4FF"/>
<stop offset="1" stop-color="#311996"/>
</linearGradient>
<linearGradient id="paint13_linear_118_3" x1="784.001" y1="958.995" x2="748.003" y2="958.995" gradientUnits="userSpaceOnUse">
<stop stop-color="#40A4FF"/>
<stop offset="1" stop-color="#311996"/>
</linearGradient>
<linearGradient id="paint14_linear_118_3" x1="1063" y1="1012.99" x2="1027" y2="1012.99" gradientUnits="userSpaceOnUse">
<stop stop-color="#40A4FF"/>
<stop offset="1" stop-color="#311996"/>
</linearGradient>
<linearGradient id="paint15_linear_118_3" x1="766.001" y1="325.995" x2="730.003" y2="325.995" gradientUnits="userSpaceOnUse">
<stop stop-color="#40A4FF"/>
<stop offset="1" stop-color="#311996"/>
</linearGradient>
<linearGradient id="paint16_linear_118_3" x1="624.001" y1="281.995" x2="588.003" y2="281.995" gradientUnits="userSpaceOnUse">
<stop stop-color="#40A4FF"/>
<stop offset="1" stop-color="#311996"/>
</linearGradient>
<linearGradient id="paint17_linear_118_3" x1="1457.75" y1="369.865" x2="1396.01" y2="369.865" gradientUnits="userSpaceOnUse">
<stop stop-color="#40A4FF"/>
<stop offset="1" stop-color="#311996"/>
</linearGradient>
<linearGradient id="paint18_linear_118_3" x1="1346.8" y1="1193.61" x2="1346.8" y2="711.986" gradientUnits="userSpaceOnUse">
<stop stop-color="#E12179"/>
<stop offset="1" stop-color="#311996"/>
</linearGradient>
<linearGradient id="paint19_linear_118_3" x1="1395.86" y1="159.712" x2="1395.86" y2="-17.9994" gradientUnits="userSpaceOnUse">
<stop stop-color="#40A4FF"/>
<stop offset="1" stop-color="#311996"/>
</linearGradient>
<linearGradient id="paint20_linear_118_3" x1="-24.1423" y1="116.712" x2="-24.1423" y2="-60.9994" gradientUnits="userSpaceOnUse">
<stop stop-color="#40A4FF"/>
<stop offset="1" stop-color="#311996"/>
</linearGradient>
<linearGradient id="paint21_linear_118_3" x1="290.447" y1="1393.9" x2="290.447" y2="681.018" gradientUnits="userSpaceOnUse">
<stop stop-color="#40A4FF"/>
<stop offset="1" stop-color="#311996"/>
</linearGradient>
<linearGradient id="paint22_linear_118_3" x1="1345.75" y1="567.865" x2="1284.01" y2="567.865" gradientUnits="userSpaceOnUse">
<stop stop-color="#40A4FF"/>
<stop offset="1" stop-color="#311996"/>
</linearGradient>
<linearGradient id="paint23_linear_118_3" x1="1283.75" y1="369.865" x2="1222.01" y2="369.865" gradientUnits="userSpaceOnUse">
<stop stop-color="#40A4FF"/>
<stop offset="1" stop-color="#311996"/>
</linearGradient>
<clipPath id="clip0_118_3">
<rect width="1440" height="1024" fill="white"/>
</clipPath>
</defs>
</svg>
